<svg width='252' height='252' xmlns="http://www.w3.org/2000/svg" fill='currentColor' stroke='1' viewBox="0 0 252 252">
<style>path{fill: #000000}@media (prefers-color-scheme:dark){path{fill: #ffffff }}</style>

<path path="fff" d="m227.1 97.39-41.29 55.05h-4.71l-40.38-55.23v92.17h-23.91V62.62h27.53L184 117.13l39.66-54.51H251v126.76h-23.9Zm-115.49 73.93c-12.5 12.33-28.61 18.06-46.19 18.06-45.14 0-64.24-31.08-64.42-62.69-.17-31.77 20.49-64.07 64.42-64.07a62.7 62.7 0 0 1 44.63 18.58L94.77 96C86.78 88.14 76 84.5 65.42 84.5c-29.34 0-42 21.88-41.84 42.19.17 20.15 11.8 41.16 41.84 41.16C76 167.85 88 163.51 96 155.52Z" /></svg>
